<svg width="126" height="138" viewBox="0 0 126 138" fill="none" xmlns="http://www.w3.org/2000/svg">
<g clip-path="url(#clip0_7_8)">
<mask id="mask0_7_8" style="mask-type:luminance" maskUnits="userSpaceOnUse" x="-178" y="-159" width="482" height="471">
<path d="M-177.523 -61.4531L199.293 -158.191L303.519 214.492L-73.2973 311.23L-177.523 -61.4531ZM31.8355 -12.8109L18.9302 -6.67774C11.9083 -3.19615 9.05257 0.993459 8.80156 8.97311C8.44188 20.4679 12.7598 38.3477 19.7401 55.9507C22.7769 63.6089 28.1512 73.6694 32.3566 78.2298C35.2776 81.3975 38.9516 82.9432 42.9362 83.6093L11.6027 137.557L37.0561 152.162L64.1125 105.533L90.883 153.714L103.707 146.755L116.868 139.927L81.2753 75.9856L81.8072 75.0551C82.7802 74.7537 83.4736 74.6089 84.537 74.2512C89.0864 72.7194 95.993 70.2346 101.425 65.7104C107.769 60.4258 113.58 51.478 117.376 45.0448C120.016 40.5699 119.544 42.0413 124.161 32.4849L128.938 22.6223L115.73 16.7641L115.876 16.4717L90.4229 1.93964L90.277 2.23211L78.3318 -6.23767L72.2074 2.84438C66.0664 11.9474 67.6772 9.78064 64.7854 14.8497C62.1369 19.492 58.8627 25.6772 56.6779 31.7992L31.8355 -12.8109Z" fill="white"/>
</mask>
<g mask="url(#mask0_7_8)">
<path d="M61.8909 14.7612C56.7233 14.7688 51.4768 15.4125 46.271 16.7489C12.9538 25.3023 -6.64957 59.0978 2.56585 92.0495C11.7813 125.001 46.3945 144.847 79.7116 136.293C113.029 127.74 132.651 93.9627 123.436 61.0109C115.66 33.2079 89.7957 14.7205 61.8909 14.7612ZM62.127 25.4322C85.261 25.357 106.572 40.5753 113.033 63.6806C120.692 91.0648 104.523 118.915 76.8355 126.023C49.1477 133.132 20.6079 116.764 12.9495 89.3801C5.29115 61.9959 21.4785 34.2004 49.1663 27.0922C53.4926 25.9816 57.8428 25.446 62.127 25.4322ZM62.2611 35.0027C58.7838 35.0085 55.2562 35.4343 51.7549 36.3332C29.3466 42.0859 16.1133 64.8149 22.3114 86.9775C28.5094 109.14 51.8386 122.517 74.2469 116.764C96.6552 111.012 109.888 88.246 103.69 66.0834C98.4605 47.3838 81.0383 34.9713 62.2611 35.0027ZM62.4781 45.6002C76.4875 45.5453 89.3719 54.7509 93.2878 68.7529C97.9288 85.3479 88.1498 102.187 71.3708 106.495C54.5918 110.802 37.3916 100.885 32.7506 84.2898C28.1096 67.6948 37.8521 50.9289 54.6311 46.6213C57.2528 45.9483 59.8837 45.6102 62.4781 45.6002Z" fill="#64CCC5"/>
</g>
<path d="M93.5018 15.7317L76.2252 44.9077L23.9775 133.141L32.4907 137.934L84.7384 49.7L102.015 20.5239L93.5018 15.7317Z" fill="#64CCC5"/>
<path d="M80.3334 8.14905C80.3334 8.14905 76.8704 13.201 73.1142 19.6421C69.3576 26.0829 65.1868 33.6794 63.7912 40.8577C62.7387 46.2703 63.6174 51.5827 64.442 56.1668C65.2667 60.7508 66.2913 64.3409 66.2913 64.3409L76.2842 59.6568C76.2842 59.6568 75.4367 56.4338 74.7067 52.3757C73.9766 48.3175 73.6287 43.17 73.9855 41.3351C74.6854 37.7346 78.2584 30.2771 81.7193 24.3423C85.1812 18.4081 88.3994 13.758 88.3994 13.758L80.3334 8.14905Z" fill="#64CCC5"/>
<path d="M115.354 27.8488L106.329 23.8553C106.329 23.8553 103.797 28.8921 100.25 34.7775C96.7031 40.6627 91.8396 47.4268 88.995 49.792C87.5328 51.008 82.7349 53.2683 78.7232 54.6563C74.7115 56.0443 71.3989 56.8686 71.3989 56.8686L72.1243 67.7097C72.1243 67.7097 75.8755 66.7979 80.409 65.2293C84.9426 63.6608 90.1777 61.7535 94.517 58.1451C100.239 53.3874 104.883 46.073 108.736 39.6797C112.587 33.2859 115.354 27.8488 115.354 27.8488Z" fill="#64CCC5"/>
<path d="M60.2568 58.6609L27.8036 0.332764L24.3944 2.02325C20.3428 4.03664 20.1153 4.3718 19.9446 8.64265C19.5461 18.6449 23.1395 34.0579 29.8479 51.1214C32.6053 58.1348 37.4427 66.8622 40.2449 69.8787C44.6354 74.6048 49.1115 76.1415 53.3294 74.37C54.9113 73.7085 56.4661 72.5478 57.5188 71.2418C57.8337 70.8515 58.9829 72.8385 71.7166 95.7886L94.682 137.179L98.2505 135.294L101.819 133.408L60.2568 58.6609Z" fill="#64CCC5"/>
</g>
<defs>
<clipPath id="clip0_7_8">
<rect width="126" height="138" fill="white"/>
</clipPath>
</defs>
</svg>
