<svg width="120" height="118" viewBox="0 0 120 118" fill="none" xmlns="http://www.w3.org/2000/svg">
<g clip-path="url(#clip0_7_26)">
<path d="M56.1838 1.50795L1.62546 53.4289C1.10917 53.9274 0.699444 54.5226 0.420318 55.1791C0.141192 55.8356 -0.00176938 56.5402 1.65282e-05 57.2518V112.718C0.0148472 114.114 0.585503 115.449 1.58957 116.437C2.59364 117.424 3.95128 117.985 5.37118 118H114.558C115.991 118.004 117.366 117.45 118.385 116.461C119.405 115.471 119.985 114.126 120 112.718V57.2518C120.002 56.5402 119.859 55.8356 119.58 55.1791C119.301 54.5226 118.891 53.9274 118.375 53.4289L63.7457 1.50795C62.7328 0.54081 61.3766 -0.000274658 59.9648 -0.000274658C58.5531 -0.000274658 57.1967 0.54081 56.1838 1.50795ZM60 12.7679L109.117 59.5455V107.366H10.8127V59.6152L60 12.7679Z" fill="#64CCC5"/>
</g>
<defs>
<clipPath id="clip0_7_26">
<rect width="120" height="118" fill="white"/>
</clipPath>
</defs>
</svg>
