<svg width="119" height="116" viewBox="0 0 119 116" fill="none" xmlns="http://www.w3.org/2000/svg">
<g clip-path="url(#clip0_7_2)">
<path fill-rule="evenodd" clip-rule="evenodd" d="M23.809 51.9619C23.3121 51.4749 22.7186 51.0912 22.0626 50.8327C21.4066 50.5742 20.7011 50.446 19.9866 50.4557C19.272 50.4654 18.5626 50.6126 17.899 50.8889C17.2354 51.1652 16.6308 51.5653 16.1198 52.066L1.61498 66.2051C0.593829 67.2141 0.0132461 68.5654 0.000264106 69.9633C-0.0127179 71.3611 0.54296 72.6918 1.54571 73.6639L7.37832 79.3494L2.61833 83.9894C2.10474 84.4875 1.69432 85.0769 1.41085 85.7238C1.12737 86.3707 0.976346 87.0622 0.966427 87.7587C0.956507 88.4552 1.08803 89.1429 1.35319 89.7824C1.61835 90.4218 2.01199 91.0004 2.51159 91.4847L25.1858 113.587C26.193 114.555 27.5637 115.084 28.9979 115.058C30.4321 115.031 31.813 114.453 32.8385 113.448L37.5985 108.808L43.4311 114.493C44.4284 115.471 45.7934 116.012 47.2274 116C48.6614 115.987 50.0476 115.421 51.0828 114.426L65.5876 100.287C66.1012 99.7886 66.5116 99.1992 66.7951 98.5523C67.0786 97.9054 67.2295 97.2138 67.2394 96.5173C67.2494 95.8208 67.1179 95.1331 66.8528 94.4937C66.5876 93.8543 66.194 93.2757 65.6944 92.7914L23.809 51.9619ZM19.8043 63.2569L54.1437 96.7306L47.4348 103.27L41.6022 97.5849C41.1053 97.0979 40.5118 96.7142 39.8558 96.4557C39.1998 96.1972 38.4944 96.0691 37.7799 96.0787C37.0653 96.0884 36.3558 96.2356 35.6923 96.5119C35.0287 96.7882 34.424 97.1883 33.913 97.6889L29.1905 102.292L14.0622 87.5455L18.7847 82.942C19.8155 81.9424 20.4093 80.5963 20.4361 79.1982C20.463 77.8002 19.9207 76.464 18.9279 75.4822L13.0953 69.7967L19.8043 63.2569Z" fill="#64CCC5"/>
<path d="M73.5046 29.6726C73.0078 29.1856 72.4142 28.8019 71.7583 28.5434C71.1023 28.2849 70.3968 28.1567 69.6823 28.1664C68.9677 28.176 68.2583 28.3232 67.5947 28.5996C66.9311 28.8759 66.3264 29.276 65.8155 29.7766L30.5466 64.1564C30.033 64.6544 29.6226 65.2439 29.3391 65.8907C29.0557 66.5376 28.9046 67.2291 28.8947 67.9256C28.8848 68.6222 29.0163 69.3099 29.2815 69.9493C29.5466 70.5888 29.9403 71.1673 30.4399 71.6517L45.4953 86.3275C45.9922 86.8145 46.5857 87.1982 47.2417 87.4567C47.8976 87.7152 48.6031 87.8434 49.3177 87.8337C50.0322 87.8241 50.7416 87.6769 51.4052 87.4005C52.0688 87.1242 52.6735 86.7241 53.1844 86.2235L88.4533 51.8437C88.9669 51.3457 89.3773 50.7562 89.6608 50.1094C89.9443 49.4625 90.0953 48.771 90.1052 48.0745C90.1151 47.3779 89.9836 46.6902 89.7184 46.0508C89.4533 45.4113 89.0596 44.8328 88.56 44.3484L73.5046 29.6726ZM69.4999 40.9675L77.0094 48.2877L49.499 75.1046L41.9895 67.7845L69.4999 40.9675Z" fill="#64CCC5"/>
<path d="M93.8134 2.48463C92.8162 1.50716 91.4511 0.965491 90.0171 0.978145C88.5831 0.9908 87.1969 1.55675 86.1618 2.55216L81.4018 7.19214L75.5692 1.50658C75.0723 1.01957 74.4788 0.635853 73.8228 0.377379C73.1668 0.118906 72.4613 -0.00930132 71.7468 0.000368396C71.0323 0.0100381 70.3229 0.157252 69.6593 0.433583C68.9957 0.709914 68.391 1.10999 67.8801 1.61063L53.4127 15.7133C52.8991 16.2113 52.4888 16.8006 52.2054 17.4475C51.9219 18.0943 51.7707 18.786 51.7608 19.4825C51.7509 20.1791 51.8824 20.8668 52.1475 21.5062C52.4127 22.1457 52.8063 22.7242 53.3059 23.2086L95.1913 64.038C95.6882 64.525 96.2817 64.9087 96.9377 65.1672C97.5937 65.4257 98.2991 65.5538 99.0137 65.5442C99.7282 65.5345 100.438 65.3872 101.101 65.1109C101.765 64.8345 102.37 64.4346 102.88 63.934L117.348 49.8313C117.861 49.3333 118.272 48.7438 118.555 48.097C118.839 47.4501 118.99 46.7585 119 46.062C119.01 45.3655 118.878 44.6778 118.613 44.0384C118.348 43.399 117.954 42.8204 117.455 42.336L111.622 36.6505L116.382 32.0105C117.397 31.0078 117.977 29.667 117.996 28.2778C118.016 26.8886 117.474 25.5628 116.488 24.5873L93.8134 2.48463ZM89.8098 13.7075L104.938 28.4545L100.178 33.0945C99.157 34.1035 98.5764 35.4547 98.5634 36.8526C98.5504 38.2505 99.1061 39.5811 100.109 40.5532L105.941 46.2388L99.195 52.8151L64.8555 19.3414L71.602 12.765L77.4346 18.4506C78.4354 19.4123 79.7955 19.9406 81.2206 19.9213C82.6457 19.902 84.0212 19.3367 85.0498 18.3475L89.8098 13.7075Z" fill="#64CCC5"/>
</g>
<defs>
<clipPath id="clip0_7_2">
<rect width="119" height="116" fill="white"/>
</clipPath>
</defs>
</svg>
