<svg width="594" height="769" viewBox="0 0 594 769" fill="none" xmlns="http://www.w3.org/2000/svg">
<path fill-rule="evenodd" clip-rule="evenodd" d="M1 25.5L16.5 1H47L68 25.5V749.5L47 768.5H16.5L1 749.5V25.5ZM137 68V456.5H593V410.5L432 263L593 117.5V68H137Z" fill="#D9D9D9"/>
<path d="M16.5 1V0.5H16.2247L16.0775 0.732679L16.5 1ZM1 25.5L0.577461 25.2327L0.5 25.3551V25.5H1ZM47 1L47.3796 0.674604L47.23 0.5H47V1ZM68 25.5H68.5V25.315L68.3796 25.1746L68 25.5ZM68 749.5L68.3355 749.871L68.5 749.722V749.5H68ZM47 768.5V769H47.1926L47.3355 768.871L47 768.5ZM16.5 768.5L16.1126 768.816L16.2626 769H16.5V768.5ZM1 749.5H0.5V749.678L0.612567 749.816L1 749.5ZM137 456.5H136.5V457H137V456.5ZM137 68V67.5H136.5V68H137ZM593 456.5V457H593.5V456.5H593ZM593 410.5H593.5V410.28L593.338 410.131L593 410.5ZM432 263L431.665 262.629L431.257 262.997L431.662 263.369L432 263ZM593 117.5L593.335 117.871L593.5 117.722V117.5H593ZM593 68H593.5V67.5H593V68ZM16.0775 0.732679L0.577461 25.2327L1.42254 25.7673L16.9225 1.26732L16.0775 0.732679ZM47 0.5H16.5V1.5H47V0.5ZM68.3796 25.1746L47.3796 0.674604L46.6204 1.3254L67.6204 25.8254L68.3796 25.1746ZM68.5 749.5V25.5H67.5V749.5H68.5ZM47.3355 768.871L68.3355 749.871L67.6645 749.129L46.6645 768.129L47.3355 768.871ZM16.5 769H47V768H16.5V769ZM0.612567 749.816L16.1126 768.816L16.8874 768.184L1.38743 749.184L0.612567 749.816ZM0.5 25.5V749.5H1.5V25.5H0.5ZM137.5 456.5V68H136.5V456.5H137.5ZM593 456H137V457H593V456ZM592.5 410.5V456.5H593.5V410.5H592.5ZM431.662 263.369L592.662 410.869L593.338 410.131L432.338 262.631L431.662 263.369ZM592.665 117.129L431.665 262.629L432.335 263.371L593.335 117.871L592.665 117.129ZM592.5 68V117.5H593.5V68H592.5ZM137 68.5H593V67.5H137V68.5Z" fill="white"/>
</svg>
